<svg xmlns="http://www.w3.org/2000/svg" xmlns:xlink="http://www.w3.org/1999/xlink" width="790px" height="550px" viewBox="0 0 790 550" preserveAspectRatio="xMidYMid meet" ><rect id="svgEditorBackground" x="0" y="0" width="790" height="550" style="fill: none; stroke: none;"/><rect x="86" y="38" style="fill:white;stroke:black;stroke-width:1px;" id="e3_rectangle" width="138" height="121"/><rect x="84" y="213" style="fill:white;stroke:black;stroke-width:1px;" id="e2_rectangle" width="138" height="121"/><rect x="80" y="388" style="fill:white;stroke:black;stroke-width:1px;" id="e1_rectangle" width="138" height="121"/><rect x="283" y="38" style="fill:white;stroke:black;stroke-width:1px;" id="e4_rectangle" width="138" height="121"/><rect x="482" y="40" style="fill:white;stroke:black;stroke-width:1px;" id="e5_rectangle" width="138" height="121"/><rect x="283" y="213" style="fill:white;stroke:black;stroke-width:1px;" id="e6_rectangle" width="138" height="121"/><rect x="476" y="217" style="fill:white;stroke:black;stroke-width:1px;" id="e7_rectangle" width="138" height="121"/><rect x="469" y="395" style="fill:white;stroke:black;stroke-width:1px;" id="e8_rectangle" width="138" height="121"/><rect x="271" y="393" style="fill:white;stroke:black;stroke-width:1px;" id="e9_rectangle" width="138" height="121"/><rect x="128" y="157" style="fill:khaki;stroke:black;stroke-width:1px;" id="e12_rectangle" width="53" height="59"/><rect x="324" y="157" style="fill:khaki;stroke:black;stroke-width:1px;" id="e10_rectangle" width="53" height="59"/><rect x="521" y="159" style="fill:khaki;stroke:black;stroke-width:1px;" id="e11_rectangle" width="53" height="59"/><rect x="521" y="338" style="fill:khaki;stroke:black;stroke-width:1px;" id="e13_rectangle" width="53" height="59"/><rect x="323" y="333" style="fill:khaki;stroke:black;stroke-width:1px;" id="e14_rectangle" width="53" height="59"/><rect x="123" y="332" style="fill:khaki;stroke:black;stroke-width:1px;" id="e15_rectangle" width="53" height="59"/><rect x="223" y="70" style="fill:khaki;stroke:black;stroke-width:1px;" id="e17_rectangle" width="62" height="44"/><rect x="221" y="251" style="fill:khaki;stroke:black;stroke-width:1px;" id="e16_rectangle" width="62" height="44"/><rect x="216" y="434" style="fill:khaki;stroke:black;stroke-width:1px;" id="e18_rectangle" width="62" height="44"/><rect x="409" y="437" style="fill:khaki;stroke:black;stroke-width:1px;" id="e19_rectangle" width="62" height="44"/><rect x="415" y="258" style="fill:khaki;stroke:black;stroke-width:1px;" id="e20_rectangle" width="62" height="44"/><rect x="420" y="77" style="fill:khaki;stroke:black;stroke-width:1px;" id="e21_rectangle" width="62" height="44"/><rect x="199" y="137" style="fill:black;stroke:black;stroke-width:1px;" id="e22_rectangle" width="25" height="22"  rx="0" ry="0"/><rect x="193" y="388" style="fill:black;stroke:black;stroke-width:1px;" id="e23_rectangle" width="25" height="22"  rx="0" ry="0"/><rect x="470" y="394" style="fill:black;stroke:black;stroke-width:1px;" id="e24_rectangle" width="25" height="22"  rx="0" ry="0"/><rect x="482" y="138" style="fill:black;stroke:black;stroke-width:1px;" id="e25_rectangle" width="25" height="22"  rx="0" ry="0"/><text style="fill:black;font-family:Arial;font-size:20px;" x="123" y="103" id="e23_texte" >Study</text><text style="fill:black;font-family:Arial;font-size:20px;" x="329" y="103" id="e24_texte" >Hall</text><text style="fill:black;font-family:Arial;font-size:20px;" x="520" y="108" id="e25_texte" >Lounge</text><text style="fill:black;font-family:Arial;font-size:20px;" x="507" y="281" id="e26_texte" >Dinning</text><text style="fill:black;font-family:Arial;font-size:20px;" x="501" y="465" id="e27_texte" >Kitchen</text><text style="fill:black;font-family:Arial;font-size:20px;" x="301" y="459" id="e28_texte" >Ball Room</text><text style="fill:black;font-family:Arial;font-size:20px;" x="309" y="277" id="e29_texte" >Billiards</text><text style="fill:black;font-family:Arial;font-size:20px;" x="119" y="273" id="e30_texte" >Library</text><text style="fill:black;font-family:Arial;font-size:20px;" x="114" y="454" id="e31_texte" ></text><text style="fill:black;font-family:Arial;font-size:20px;" x="84" y="455" id="e32_texte" >Conservation</text></svg>